<?xml version="1.0" standalone="no"?>
<!DOCTYPE svg PUBLIC "-//W3C//DTD SVG 20010904//EN"
 "http://www.w3.org/TR/2001/REC-SVG-20010904/DTD/svg10.dtd">
<svg version="1.0" xmlns="http://www.w3.org/2000/svg"
 width="1354.000000pt" height="1354.000000pt" viewBox="0 0 1354.000000 1354.000000"
 preserveAspectRatio="xMidYMid meet">
<metadata>
Created by potrace 1.14, written by Peter Selinger 2001-2017
</metadata>
<g transform="translate(0.000000,1354.000000) scale(0.100000,-0.100000)"
fill="#000000" stroke="none">
<path d="M6418 13535 c-1 -2 -48 -6 -103 -9 -125 -7 -190 -13 -380 -36 -118
-14 -155 -20 -182 -25 -12 -3 -41 -7 -65 -10 -63 -8 -353 -64 -423 -82 -33 -8
-69 -17 -80 -19 -39 -7 -61 -13 -155 -39 -52 -14 -103 -28 -113 -30 -169 -39
-631 -206 -907 -328 -99 -43 -435 -210 -480 -237 -8 -5 -64 -37 -125 -71 -60
-33 -126 -71 -145 -84 -19 -12 -60 -37 -90 -56 -673 -415 -1336 -1027 -1835
-1694 -143 -192 -354 -512 -441 -670 -6 -11 -32 -58 -58 -104 -27 -46 -85
-159 -131 -250 -224 -450 -385 -888 -520 -1421 -8 -33 -64 -297 -70 -330 -3
-19 -8 -42 -10 -50 -2 -8 -7 -37 -11 -65 -3 -27 -7 -52 -9 -55 -2 -3 -6 -29
-10 -59 -4 -30 -8 -63 -11 -74 -2 -10 -6 -45 -10 -76 -3 -31 -8 -64 -10 -74
-2 -10 -6 -53 -10 -95 -3 -42 -8 -85 -9 -94 -17 -89 -25 -432 -12 -555 24
-243 119 -506 256 -709 76 -113 98 -139 196 -239 314 -322 740 -499 1195 -499
302 0 599 91 870 265 61 39 80 56 75 68 -29 74 -150 439 -160 481 -2 8 -13 51
-24 95 -19 68 -52 210 -67 280 -20 95 -61 343 -69 410 -2 22 -7 60 -10 85 -23
194 -29 309 -29 600 -1 245 6 449 18 540 2 14 7 57 10 95 4 39 9 77 11 85 2 8
7 42 10 75 4 32 8 62 10 65 1 3 6 28 9 55 4 28 18 106 32 175 33 158 30 144
49 220 8 36 17 72 19 80 59 241 187 602 316 890 57 128 195 396 216 421 8 9
12 18 9 21 -3 3 1 11 10 18 8 7 15 16 15 21 0 25 366 570 410 609 3 3 24 28
46 57 122 155 285 334 469 513 98 96 190 177 377 334 152 128 537 390 713 486
22 12 60 33 85 47 257 144 638 308 950 407 95 31 376 108 439 121 9 2 36 8 61
14 56 12 99 21 125 25 11 2 34 6 50 9 28 6 58 11 123 21 15 3 47 8 72 12 25 4
52 8 60 9 15 1 115 12 175 20 17 2 68 7 115 10 47 4 101 9 120 11 41 5 588 5
640 0 19 -2 79 -6 133 -10 54 -4 105 -9 115 -10 9 -2 46 -7 82 -11 36 -3 76
-8 90 -10 14 -3 57 -9 95 -15 331 -48 744 -155 1067 -276 509 -190 1020 -472
1417 -782 51 -40 95 -71 97 -69 8 7 -297 245 -446 348 -183 127 -237 163 -375
246 -406 245 -775 422 -1205 578 -336 122 -738 232 -1055 289 -119 22 -177 31
-285 47 -41 5 -86 12 -99 14 -14 2 -54 7 -90 11 -36 3 -72 7 -81 9 -8 2 -60 6
-115 10 -55 4 -109 10 -120 12 -22 6 -811 13 -817 8z"/>
<path d="M11970 11097 c0 -6 165 -232 180 -247 3 -3 21 -29 39 -58 19 -30 39
-59 45 -66 13 -14 10 -10 129 -206 263 -436 435 -830 579 -1325 11 -38 21 -77
23 -85 2 -8 15 -60 29 -115 56 -219 115 -562 131 -765 2 -19 6 -75 11 -125 16
-175 7 -915 -11 -945 -2 -3 -6 -36 -9 -75 -4 -38 -11 -97 -16 -130 -5 -33 -11
-78 -15 -100 -5 -36 -9 -64 -21 -130 -86 -484 -261 -1009 -483 -1453 -57 -115
-117 -229 -150 -283 -9 -15 -33 -57 -54 -94 -75 -129 -370 -554 -407 -585 -3
-3 -23 -27 -45 -55 -214 -272 -539 -591 -879 -862 -36 -29 -202 -150 -269
-196 -76 -53 -335 -217 -343 -217 -2 0 -23 -12 -45 -26 -149 -94 -519 -266
-792 -368 -146 -55 -462 -156 -487 -156 -4 0 -24 11 -44 25 -40 27 -43 26 -20
-10 13 -20 14 -26 3 -30 -74 -26 -460 -103 -604 -120 -27 -3 -59 -8 -70 -10
-11 -2 -51 -7 -90 -10 -38 -4 -83 -8 -100 -10 -208 -24 -817 -24 -975 0 -369
57 -637 214 -847 497 -90 121 -187 335 -208 459 -3 19 -8 41 -10 49 -17 63
-23 272 -10 363 38 267 188 760 351 1149 111 267 288 636 412 863 21 39 55
102 76 140 50 91 219 383 266 460 128 208 208 336 237 377 18 26 33 50 33 53
0 14 458 680 605 880 116 159 410 550 416 555 3 3 19 23 35 45 31 43 128 166
264 336 47 59 97 122 112 140 14 19 35 44 45 55 10 12 32 39 48 60 35 44 323
392 387 467 341 400 670 775 937 1067 53 57 123 134 156 170 115 126 141 154
211 229 120 128 135 146 124 149 -5 2 -12 4 -15 5 -4 2 -10103 -10092 -10600
-10594 -140 -142 -144 -147 -65 -82 135 110 246 187 395 273 128 74 289 152
430 208 120 48 362 124 439 139 11 2 45 10 75 18 53 13 187 38 276 50 202 29
319 36 555 35 190 -1 244 -3 371 -14 151 -14 184 -18 289 -36 30 -5 71 -12 90
-15 146 -23 338 -67 515 -116 186 -52 530 -168 620 -208 30 -14 175 -68 310
-116 282 -99 694 -209 985 -261 14 -2 48 -9 75 -14 28 -5 68 -12 90 -15 22 -3
67 -10 100 -15 33 -5 83 -12 110 -15 28 -3 59 -8 70 -10 11 -2 58 -7 105 -10
47 -4 96 -8 110 -11 118 -19 806 -27 1030 -11 114 8 140 10 255 22 33 4 80 9
105 11 25 3 56 6 70 9 14 2 45 7 70 10 55 7 217 33 246 39 12 2 39 7 60 10
160 26 535 119 767 190 401 123 913 341 1245 530 35 20 66 36 68 36 9 0 303
183 434 270 182 122 515 370 550 410 3 3 28 24 55 45 28 22 55 45 60 51 6 5
50 46 100 90 204 180 543 533 690 719 22 28 45 55 52 60 22 20 259 342 349
475 116 172 283 450 364 605 34 66 66 127 71 135 15 26 116 242 144 310 15 36
35 83 45 105 31 68 130 324 130 335 0 6 4 18 9 28 33 59 194 614 225 772 2 14
14 68 25 120 30 147 71 389 86 515 3 28 7 65 10 83 2 18 7 67 10 110 4 42 8
91 11 107 17 139 25 706 11 930 -10 170 -20 289 -32 385 -3 19 -7 55 -9 80 -5
47 -7 64 -31 220 -37 235 -107 560 -166 765 -35 122 -70 239 -79 265 -75 216
-143 406 -165 455 -7 17 -34 80 -60 140 -50 117 -220 466 -280 575 -165 298
-391 642 -575 874 -36 45 -78 100 -95 121 -54 69 -64 80 -65 72z"/>
</g>
</svg>
